<svg width="130" height="55" viewBox="0 0 130 55" fill="none" xmlns="http://www.w3.org/2000/svg">
<path d="M12.3047 36.3086V13H15.3984V40H12.5684L12.3047 36.3086ZM1.66992 31.4043V29.6289C1.66992 28.0586 1.82227 26.7109 2.12695 25.5859C2.43164 24.4492 2.86523 23.5176 3.42773 22.791C3.99023 22.0527 4.66406 21.5078 5.44922 21.1562C6.23438 20.8047 7.10156 20.6289 8.05078 20.6289C9.03516 20.6289 9.87891 20.8281 10.582 21.2266C11.2969 21.625 11.8945 22.2051 12.375 22.9668C12.8555 23.7168 13.2305 24.6309 13.5 25.709C13.7812 26.7754 13.9688 27.9824 14.0625 29.3301V31.7031C13.957 33.0391 13.7637 34.2402 13.4824 35.3066C13.2129 36.373 12.8379 37.2812 12.3574 38.0312C11.877 38.7812 11.2793 39.3555 10.5645 39.7539C9.84961 40.1523 9 40.3516 8.01562 40.3516C7.07812 40.3516 6.22266 40.1699 5.44922 39.8066C4.67578 39.4316 4.00195 38.875 3.42773 38.1367C2.86523 37.3867 2.43164 36.4551 2.12695 35.3418C1.82227 34.2168 1.66992 32.9043 1.66992 31.4043ZM4.78125 29.6289V31.4043C4.78125 32.459 4.85742 33.3789 5.00977 34.1641C5.16211 34.9375 5.40234 35.582 5.73047 36.0977C6.05859 36.6016 6.47461 36.9766 6.97852 37.2227C7.49414 37.4688 8.10938 37.5918 8.82422 37.5918C9.69141 37.5918 10.4004 37.3809 10.9512 36.959C11.502 36.5371 11.9414 35.9805 12.2695 35.2891C12.6094 34.5859 12.8789 33.8301 13.0781 33.0215V28.0293C12.9609 27.4316 12.791 26.8574 12.5684 26.3066C12.3457 25.7441 12.0645 25.2461 11.7246 24.8125C11.3965 24.3672 10.9922 24.0156 10.5117 23.7578C10.043 23.5 9.49219 23.3711 8.85938 23.3711C8.14453 23.3711 7.52344 23.5 6.99609 23.7578C6.48047 24.0156 6.05859 24.4023 5.73047 24.918C5.41406 25.4336 5.17383 26.084 5.00977 26.8691C4.85742 27.6543 4.78125 28.5742 4.78125 29.6289ZM27 40.3516C25.8633 40.3516 24.8379 40.1816 23.9238 39.8418C23.0098 39.502 22.2305 38.9863 21.5859 38.2949C20.9414 37.5918 20.4492 36.707 20.1094 35.6406C19.7695 34.5742 19.5996 33.3145 19.5996 31.8613V29.7168C19.5996 28.041 19.793 26.623 20.1797 25.4629C20.5781 24.3027 21.1113 23.3711 21.7793 22.668C22.4473 21.9531 23.2031 21.4375 24.0469 21.1211C24.8906 20.793 25.7578 20.6289 26.6484 20.6289C27.8438 20.6289 28.8633 20.8223 29.707 21.209C30.5508 21.5957 31.2363 22.1699 31.7637 22.9316C32.291 23.6934 32.6777 24.6309 32.9238 25.7441C33.1816 26.8574 33.3105 28.1406 33.3105 29.5938V31.4043H21.4277V28.75H30.1992V28.3105C30.1523 27.3262 30.0176 26.459 29.7949 25.709C29.584 24.959 29.2324 24.373 28.7402 23.9512C28.248 23.5176 27.5508 23.3008 26.6484 23.3008C26.0742 23.3008 25.541 23.4004 25.0488 23.5996C24.5684 23.7871 24.1523 24.1211 23.8008 24.6016C23.4609 25.0703 23.1914 25.7207 22.9922 26.5527C22.8047 27.3848 22.7109 28.4395 22.7109 29.7168V31.8613C22.7109 32.8809 22.8047 33.7598 22.9922 34.498C23.1914 35.2246 23.4785 35.8281 23.8535 36.3086C24.2402 36.7773 24.709 37.1289 25.2598 37.3633C25.8223 37.5859 26.4609 37.6973 27.1758 37.6973C28.2188 37.6973 29.0801 37.498 29.7598 37.0996C30.4395 36.6895 31.0312 36.168 31.5352 35.5352L33.1699 37.4863C32.8301 37.9668 32.3848 38.4297 31.834 38.875C31.2949 39.3086 30.627 39.666 29.8301 39.9473C29.0449 40.2168 28.1016 40.3516 27 40.3516ZM41.748 37.0645L45.8262 20.9805H48.9902L43.3477 40H41.291L41.748 37.0645ZM38.4609 20.9805L42.7148 37.1523L43.0488 40H41.0098L35.2969 20.9805H38.4609ZM66.1641 35.7461V40H55.5293V35.7461H66.1641ZM57.1113 14.4062V40H51.9609V14.4062H57.1113ZM119.391 30.9824H114.152V26.7109H119.391C120.129 26.7109 120.727 26.5469 121.184 26.2188C121.641 25.8906 121.975 25.4395 122.186 24.8652C122.396 24.2793 122.502 23.623 122.502 22.8965C122.502 22.1582 122.396 21.4668 122.186 20.8223C121.975 20.1777 121.641 19.6621 121.184 19.2754C120.727 18.877 120.129 18.6777 119.391 18.6777H115.822V40H110.672V14.4062H119.391C121.113 14.4062 122.59 14.7695 123.82 15.4961C125.062 16.2227 126.018 17.2246 126.686 18.502C127.354 19.7676 127.688 21.2207 127.688 22.8613C127.688 24.5137 127.354 25.9492 126.686 27.168C126.018 28.375 125.062 29.3125 123.82 29.9805C122.59 30.6484 121.113 30.9824 119.391 30.9824Z" fill="white"/>
<path fill-rule="evenodd" clip-rule="evenodd" d="M69.6329 15.9426C68.4145 17.5551 68.247 18.515 68.0579 24.9481C67.8081 33.4726 68.3282 36.4921 70.3756 38.3935C72.8652 40.7059 74.9058 40.2009 79.7586 36.0704C97.6038 20.8826 100.859 18.2685 101.407 18.6895C102.25 19.3371 102.245 34.3682 101.401 35.0173C101.058 35.2808 98.8642 33.8731 96.5261 31.8883C92.1792 28.1978 91.3378 28.0326 89.6663 30.5379C89.1746 31.2752 89.9757 32.2528 93.4039 35.0957C99.7267 40.3408 100.039 40.4969 102.336 39.5539C105.613 38.2084 106 36.8452 106 26.6616C106 17.9874 105.941 17.5311 104.606 15.8713C103.573 14.5851 102.602 14.1373 100.849 14.1373C98.8932 14.1373 97.6849 14.8323 93.8672 18.1512C87.1391 24.0016 84.7425 26.0612 78.8837 31.0309C72.2072 36.6941 71.9335 36.5295 71.9335 26.8509C71.9335 17.4499 72.289 17.1511 77.9099 21.8283C82.0751 25.2942 82.2682 25.3775 83.607 24.2863C84.3689 23.6647 84.9923 22.9054 84.9923 22.5975C84.9923 22.2902 82.8848 20.2596 80.3082 18.0848C74.7457 13.39 71.9795 12.8348 69.6329 15.9426Z" fill="white"/>
</svg>
